<?xml version="1.0" encoding="UTF-8"?>
<!DOCTYPE svg PUBLIC "-//W3C//DTD SVG 1.1//EN" "http://www.w3.org/Graphics/SVG/1.1/DTD/svg11.dtd">
<!-- Creator: CorelDRAW 2018 (64-Bit Evaluation Version) -->
<svg xmlns="http://www.w3.org/2000/svg" xml:space="preserve" width="0.0564528in" height="0.0564528in" version="1.1" style="shape-rendering:geometricPrecision; text-rendering:geometricPrecision; image-rendering:optimizeQuality; fill-rule:evenodd; clip-rule:evenodd"
viewBox="0 0 1.02 1.02"
 xmlns:xlink="http://www.w3.org/1999/xlink">
 <defs>
  <style type="text/css">
   <![CDATA[
    .fil4 {fill:black}
    .fil1 {fill:#C90000}
    .fil0 {fill:red}
    .fil2 {fill:black;fill-rule:nonzero}
    .fil3 {fill:#4D4D4D;fill-rule:nonzero}
   ]]>
  </style>
 </defs>
 <g id="Layer_x0020_1">
  <metadata id="CorelCorpID_0Corel-Layer"/>
  <path class="fil0" d="M0.51 0.51l0 -0.47c0.26,0 0.47,0.21 0.47,0.47 0,0.26 -0.21,0.47 -0.47,0.47 -0.26,0 -0.47,-0.21 -0.47,-0.47l0.47 -0z"/>
  <path class="fil1" d="M0.73 0.09c0.15,0.08 0.25,0.24 0.25,0.42 0,0.26 -0.21,0.47 -0.47,0.47 -0.13,0 -0.24,-0.05 -0.32,-0.13 0.07,0.03 0.14,0.05 0.22,0.05 0.26,0 0.47,-0.21 0.47,-0.47 0,-0.14 -0.06,-0.26 -0.15,-0.34z"/>
  <path class="fil2" d="M0.51 0l0 0c0.14,0 0.27,0.06 0.36,0.15 0.09,0.09 0.15,0.22 0.15,0.36 0,0.14 -0.06,0.27 -0.15,0.36 -0.09,0.09 -0.22,0.15 -0.36,0.15l0 -0.07c0.12,0 0.23,-0.05 0.31,-0.13 0.08,-0.08 0.13,-0.19 0.13,-0.31 0,-0.12 -0.05,-0.23 -0.13,-0.31 -0.07,-0.07 -0.17,-0.12 -0.27,-0.13l-0 0.47 -0.03 0 0 -0.54z"/>
  <path class="fil3" d="M0.47 0.47l0 -0.47 0.03 0 0 0.54 -0.44 0c0.01,0.11 0.06,0.2 0.13,0.27 0.08,0.08 0.19,0.13 0.31,0.13l0 0.07c-0.14,0 -0.27,-0.06 -0.36,-0.15 -0.09,-0.09 -0.15,-0.22 -0.15,-0.36l0 -0.03 0.47 -0z"/>
  <circle class="fil4" cx="0.09" cy="0.35" r="0.06"/>
  <circle class="fil4" cx="0.36" cy="0.09" r="0.06"/>
  <circle class="fil4" cx="0.2" cy="0.18" r="0.06"/>
 </g>
</svg>
