<?xml version="1.0" encoding="UTF-8"?>
<!DOCTYPE svg PUBLIC "-//W3C//DTD SVG 1.1//EN" "http://www.w3.org/Graphics/SVG/1.1/DTD/svg11.dtd">
<!-- Creator: CorelDRAW 2018 (64-Bit Evaluation Version) -->
<svg xmlns="http://www.w3.org/2000/svg" xml:space="preserve" width="0.0562244in" height="0.0562283in" version="1.1" style="shape-rendering:geometricPrecision; text-rendering:geometricPrecision; image-rendering:optimizeQuality; fill-rule:evenodd; clip-rule:evenodd"
viewBox="0 0 1.13 1.13"
 xmlns:xlink="http://www.w3.org/1999/xlink">
 <defs>
  <style type="text/css">
   <![CDATA[
    .fil0 {fill:black}
    .fil2 {fill:#33CC66}
    .fil1 {fill:#4D4D4D}
    .fil4 {fill:aqua;fill-rule:nonzero}
    .fil3 {fill:#4D4D4D;fill-rule:nonzero}
   ]]>
  </style>
 </defs>
 <g id="Layer_x0020_1">
  <metadata id="CorelCorpID_0Corel-Layer"/>
  <path class="fil0" d="M0.41 0.91c-0.01,-0.01 -0.03,-0.01 -0.04,0 -0.01,0.01 -0.01,0.03 0,0.04l0.03 0.03 -0.18 0c-0.09,0 -0.16,-0.07 -0.16,-0.16l0 -0.16c0,-0.02 -0.01,-0.03 -0.03,-0.03 -0.02,0 -0.03,0.01 -0.03,0.03l0 0.16c0,0.12 0.1,0.22 0.22,0.22l0.18 0 -0.03 0.03c-0.01,0.01 -0.01,0.03 0,0.04 0.01,0.01 0.01,0.01 0.02,0.01 0.01,0 0.02,-0 0.02,-0.01l0.09 -0.09c0.01,-0.01 0.01,-0.03 0,-0.04l-0.09 -0.09z"/>
  <path class="fil0" d="M0.73 0.22c0.01,0.01 0.03,0.01 0.04,0 0.01,-0.01 0.01,-0.03 0,-0.04l-0.03 -0.03 0.18 0c0.09,0 0.16,0.07 0.16,0.16l0 0.16c0,0.02 0.01,0.03 0.03,0.03 0.02,0 0.03,-0.01 0.03,-0.03l0 -0.16c0,-0.12 -0.1,-0.22 -0.22,-0.22l-0.18 0 0.03 -0.03c0.01,-0.01 0.01,-0.03 0,-0.04 -0.01,-0.01 -0.01,-0.01 -0.02,-0.01 -0.01,0 -0.02,0 -0.02,0.01l-0.09 0.09c-0.01,0.01 -0.01,0.03 0,0.04l0.09 0.09z"/>
  <path class="fil1" d="M0.53 0l-0.49 0c-0.02,0 -0.03,0.01 -0.03,0.03l0 0.49c0,0.02 0.01,0.03 0.03,0.03l0.49 0c0.02,0 0.03,-0.01 0.03,-0.03l0 -0.49c0,-0.02 -0.01,-0.03 -0.03,-0.03z"/>
  <polygon class="fil2" points="0.48,0.48 0.08,0.48 0.08,0.08 0.48,0.08 "/>
  <path class="fil3" d="M0.83 0.54c0.08,0 0.16,0.03 0.21,0.09 0.05,0.05 0.09,0.13 0.09,0.21 0,0.08 -0.03,0.16 -0.09,0.21 -0.05,0.05 -0.13,0.09 -0.21,0.09 -0.08,0 -0.16,-0.03 -0.21,-0.09 -0.05,-0.05 -0.09,-0.13 -0.09,-0.21 0,-0.08 0.03,-0.16 0.09,-0.21 0.05,-0.05 0.13,-0.09 0.21,-0.09z"/>
  <path class="fil4" d="M0.99 0.68c-0.04,-0.04 -0.09,-0.06 -0.15,-0.06 -0.06,0 -0.12,0.02 -0.15,0.06 -0.04,0.04 -0.06,0.09 -0.06,0.16 0,0.06 0.02,0.12 0.06,0.15 0.04,0.04 0.09,0.06 0.16,0.06 0.06,0 0.12,-0.02 0.15,-0.06 0.04,-0.04 0.06,-0.09 0.06,-0.16 0,-0.06 -0.02,-0.12 -0.06,-0.15z"/>
 </g>
</svg>
