<?xml version="1.0" encoding="UTF-8"?>
<!DOCTYPE svg PUBLIC "-//W3C//DTD SVG 1.1//EN" "http://www.w3.org/Graphics/SVG/1.1/DTD/svg11.dtd">
<!-- Creator: CorelDRAW 2018 (64-Bit Evaluation Version) -->
<svg xmlns="http://www.w3.org/2000/svg" xml:space="preserve" width="0.106189in" height="0.111843in" version="1.1" style="shape-rendering:geometricPrecision; text-rendering:geometricPrecision; image-rendering:optimizeQuality; fill-rule:evenodd; clip-rule:evenodd"
viewBox="0 0 5.01 5.27"
 xmlns:xlink="http://www.w3.org/1999/xlink">
 <defs>
  <style type="text/css">
   <![CDATA[
    .fil0 {fill:white}
   ]]>
  </style>
 </defs>
 <g id="Layer_x0020_1">
  <metadata id="CorelCorpID_0Corel-Layer"/>
  <path class="fil0" d="M2.58 0.78l1.88 0c0.3,0 0.55,0.25 0.55,0.55l0 3.39c0,0.3 -0.25,0.56 -0.55,0.56l-3.9 0c-0.3,0 -0.55,-0.25 -0.55,-0.56l0 -4.16c0,-0.3 0.25,-0.56 0.55,-0.56l1.13 0c0.17,0 0.32,0.08 0.43,0.21l0.46 0.57zm-1.32 1.17l0 0.25 0.26 0 0.2 2.31c0.01,0.06 0.06,0.11 0.12,0.11l1.76 0c0.06,0 0.12,-0.05 0.12,-0.11l0.2 -2.31 0.26 0 0 -0.25 -0.86 0 0 -0.27c0,-0.11 -0.09,-0.2 -0.21,-0.2l-0.8 0c-0.11,0 -0.21,0.09 -0.21,0.2l0 0.27 -0.86 0zm1.16 2.15l-0.05 -1.45 -0.25 0.01 0.05 1.45 0.25 -0.01zm0.18 0l0.25 0 0 -1.45 -0.25 0 0 1.45zm0.72 -1.45l-0.25 -0.01 -0.05 1.45 0.25 0.01 0.05 -1.45zm-0.24 -0.71l-0.72 0 0 -0.23 0.72 0 0 0.23zm0.4 2.42l-1.53 0 -0.19 -2.18 1.92 0 -0.19 2.18zm-2.92 0.64l0 -3.67c0,-0.31 0.25,-0.55 0.56,-0.55l1.11 0 -0.33 -0.4c-0.05,-0.07 -0.13,-0.11 -0.22,-0.11l-1.13 0c-0.16,0 -0.28,0.13 -0.28,0.29l0 4.16c0,0.16 0.13,0.29 0.28,0.29l0 0zm0.27 0l3.62 0c0.16,0 0.28,-0.13 0.28,-0.29l0 -3.39c0,-0.16 -0.13,-0.28 -0.28,-0.28l-3.34 0c-0.15,0 -0.29,0.12 -0.29,0.28l0 3.67z"/>
 </g>
</svg>
