<?xml version="1.0" encoding="UTF-8"?>
<!DOCTYPE svg PUBLIC "-//W3C//DTD SVG 1.1//EN" "http://www.w3.org/Graphics/SVG/1.1/DTD/svg11.dtd">
<!-- Creator: CorelDRAW 2018 (64-Bit Evaluation Version) -->
<svg xmlns="http://www.w3.org/2000/svg" xml:space="preserve" width="0.0622244in" height="0.0564016in" version="1.1" style="shape-rendering:geometricPrecision; text-rendering:geometricPrecision; image-rendering:optimizeQuality; fill-rule:evenodd; clip-rule:evenodd"
viewBox="0 0 1.31 1.19"
 xmlns:xlink="http://www.w3.org/1999/xlink">
 <defs>
  <style type="text/css">
   <![CDATA[
    .fil0 {fill:black}
    .fil1 {fill:#4D4D4D}
    .fil2 {fill:#FFB751}
    .fil3 {fill:#FFD764}
   ]]>
  </style>
 </defs>
 <g id="Layer_x0020_1">
  <metadata id="CorelCorpID_0Corel-Layer"/>
  <path class="fil0" d="M0.82 0.1l0.46 0.79c0.02,0.03 0.03,0.06 0.03,0.1 0,0.11 -0.09,0.2 -0.2,0.2l-0.46 0 -0.16 -0.59 0.16 -0.59c0.07,0 0.14,0.04 0.17,0.1z"/>
  <path class="fil1" d="M0.48 0.1l-0.46 0.79c-0.02,0.03 -0.03,0.06 -0.03,0.1 0,0.11 0.09,0.2 0.2,0.2l0.46 0 0 -1.19c-0.07,0 -0.14,0.04 -0.17,0.1z"/>
  <path class="fil2" d="M1.21 0.93l-0.46 -0.79c-0.02,-0.04 -0.06,-0.06 -0.1,-0.06l0.39 1.03 0.06 0c0.07,0 0.12,-0.05 0.12,-0.12 0,-0.02 -0.01,-0.04 -0.02,-0.06z"/>
  <path class="fil3" d="M1.14 0.93c0.01,0.02 0.01,0.04 0.01,0.06 0,0.07 -0.05,0.12 -0.1,0.12l-0.85 0c-0.07,0 -0.12,-0.05 -0.12,-0.12 0,-0.02 0.01,-0.04 0.02,-0.06l0.46 -0.79c0.02,-0.04 0.06,-0.06 0.1,-0.06 0,0 0,0 0,0 0.04,0 0.07,0.02 0.09,0.06l0.39 0.79z"/>
  <path class="fil0" d="M0.65 0.84l0 0.13c0.04,0 0.07,-0.03 0.07,-0.07 0,-0.04 -0.03,-0.07 -0.07,-0.07z"/>
  <path class="fil1" d="M0.65 0.84c0.01,0 0.01,0.03 0.01,0.07 0,0.04 -0.01,0.07 -0.01,0.07 -0.04,0 -0.07,-0.03 -0.07,-0.07 0,-0.04 0.03,-0.07 0.07,-0.07z"/>
  <path class="fil0" d="M0.65 0.28l0 0.49c0.04,0 0.07,-0.03 0.07,-0.07l0 -0.36c0,-0.04 -0.03,-0.07 -0.07,-0.07z"/>
  <path class="fil1" d="M0.65 0.28c0.01,0 0.01,0.03 0.01,0.07l0 0.36c0,0.04 -0.01,0.07 -0.01,0.07 -0.04,0 -0.07,-0.03 -0.07,-0.07l0 -0.36c0,-0.04 0.03,-0.07 0.07,-0.07z"/>
 </g>
</svg>
