<?xml version="1.0" encoding="UTF-8"?>
<!DOCTYPE svg PUBLIC "-//W3C//DTD SVG 1.1//EN" "http://www.w3.org/Graphics/SVG/1.1/DTD/svg11.dtd">
<!-- Creator: CorelDRAW 2018 (64-Bit Evaluation Version) -->
<svg xmlns="http://www.w3.org/2000/svg" xml:space="preserve" width="0.11276in" height="0.113118in" version="1.1" style="shape-rendering:geometricPrecision; text-rendering:geometricPrecision; image-rendering:optimizeQuality; fill-rule:evenodd; clip-rule:evenodd"
viewBox="0 0 4.4 4.41"
 xmlns:xlink="http://www.w3.org/1999/xlink">
 <defs>
  <style type="text/css">
   <![CDATA[
    .fil0 {fill:white}
   ]]>
  </style>
 </defs>
 <g id="Layer_x0020_1">
  <metadata id="CorelCorpID_0Corel-Layer"/>
  <path class="fil0" d="M-0 3.08c0.04,0.28 0.04,0.32 0.28,0.49 0.15,0.11 0.32,0.2 0.48,0.28 0.07,0.04 0.83,0.43 0.9,0.44 0.05,0 0.1,-0.03 0.11,-0.08 0.04,-0.12 -0.1,-0.15 -0.18,-0.19 -0.09,-0.04 -0.17,-0.08 -0.26,-0.13 -0.26,-0.13 -0.76,-0.38 -0.98,-0.55 -0.11,-0.08 -0.12,-0.12 -0.13,-0.25 -0.01,-0.12 -0,-0.25 0.01,-0.37 0.18,0.08 0.36,0.17 0.53,0.26l0.67 0.34c0.04,0.02 0.09,0.05 0.13,0.07 0.09,0.04 0.2,0.06 0.24,0.16 0.03,0.11 -0,0.23 0.04,0.35 0.03,0.08 0.09,0.18 0.15,0.25 0.13,0.15 0.35,0.26 0.54,0.26 0.36,0.01 0.59,-0.28 0.74,-0.58l-0.17 -0.17c-0.1,0.21 -0.25,0.45 -0.45,0.51 -0.17,0.05 -0.33,-0.02 -0.46,-0.13 -0.14,-0.12 -0.18,-0.26 -0.17,-0.44 0.03,-0.27 -0.02,-0.24 -0.24,-0.34 -0.13,-0.06 -0.27,-0.14 -0.4,-0.21 -0.27,-0.14 -0.54,-0.27 -0.81,-0.41 -0.07,-0.03 -0.14,-0.07 -0.21,-0.1 -0.07,-0.04 -0.12,-0.09 -0.21,-0.09 -0.03,-0 -0.09,-0.01 -0.11,0.02 -0.06,0.06 -0.04,0.34 -0.06,0.39l0 0.21zm1.83 -0.65c-0.05,-0.05 -0.05,-0.14 0.01,-0.19 0.05,-0.05 0.14,-0.05 0.19,0.01l0.19 0.2 0.46 -0.56c0.05,-0.06 0.13,-0.07 0.19,-0.02 0.06,0.05 0.07,0.13 0.02,0.19l-0.66 0.8 -0.4 -0.43zm1.77 0.81l0.69 0.69c0.07,0.07 0.06,0.2 -0.03,0.28 -0.08,0.08 -0.21,0.1 -0.28,0.03l-0.69 -0.69 0.06 -0.06 -0.41 -0.41c-0.17,0.13 -0.38,0.19 -0.58,0.19 -0.25,0 -0.49,-0.09 -0.68,-0.28 -0.19,-0.19 -0.28,-0.44 -0.28,-0.68 0,-0.25 0.09,-0.49 0.28,-0.68 0.19,-0.19 0.44,-0.28 0.68,-0.28 0.25,0 0.49,0.09 0.68,0.28 0.19,0.19 0.28,0.44 0.28,0.68 0,0.2 -0.06,0.41 -0.19,0.58l0.41 0.41 0.06 -0.06zm-1.24 -1.66c-0.19,0 -0.38,0.07 -0.52,0.21 -0.14,0.14 -0.21,0.33 -0.21,0.52 0,0.19 0.07,0.38 0.21,0.52 0.14,0.14 0.33,0.21 0.52,0.21 0.19,0 0.38,-0.07 0.52,-0.21 0.14,-0.14 0.21,-0.33 0.21,-0.52 0,-0.19 -0.07,-0.38 -0.21,-0.52 -0.14,-0.14 -0.33,-0.21 -0.52,-0.21zm-0.22 -0.9c-0.21,0.03 -0.16,0.35 0.06,0.32 0.08,-0.01 0.14,-0.1 0.13,-0.18 -0.01,-0.09 -0.1,-0.15 -0.19,-0.13zm0.36 0.17c-0.06,0.01 -0.09,0.08 -0.08,0.14 0.01,0.07 0.07,0.08 0.13,0.09 0.22,0.06 0.47,0.13 0.69,0.2 0.07,0.02 0.29,0.1 0.35,0.09 0.06,-0.01 0.09,-0.07 0.08,-0.13 -0.01,-0.06 -0.07,-0.08 -0.13,-0.09 -0.21,-0.06 -0.48,-0.14 -0.69,-0.2 -0.07,-0.02 -0.3,-0.1 -0.35,-0.09zm1.12 2.11c0.2,-0.56 0.4,-1.12 0.59,-1.68 0.03,-0.1 0.06,-0.2 0.1,-0.3 0.04,-0.12 0.08,-0.17 0.08,-0.3 -0,-0.03 0,-0.05 -0.02,-0.07 -0.02,-0.02 -0.04,-0.03 -0.07,-0.03l-1.79 -0.42c-0.17,-0.04 -0.49,-0.11 -0.65,-0.15l-0.04 0c-0.07,0.02 -0.08,0.05 -0.1,0.11 -0.02,0.05 -0.04,0.1 -0.06,0.16l-0.71 1.88c-0.03,0.07 -0.11,0.26 -0.1,0.32 0.01,0.06 0.07,0.09 0.13,0.08 0.06,-0.01 0.08,-0.07 0.1,-0.12 0.04,-0.1 0.08,-0.21 0.12,-0.31l0.47 -1.25c0.08,-0.21 0.16,-0.42 0.23,-0.62 0.09,0.01 0.19,0.04 0.28,0.06l0.83 0.2c0.19,0.04 0.37,0.09 0.56,0.13 0.18,0.04 0.37,0.08 0.55,0.13 -0.2,0.61 -0.41,1.22 -0.63,1.82l-0.07 0.19 0.17 0.17z"/>
 </g>
</svg>
