<?xml version="1.0" encoding="UTF-8"?>
<!DOCTYPE svg PUBLIC "-//W3C//DTD SVG 1.1//EN" "http://www.w3.org/Graphics/SVG/1.1/DTD/svg11.dtd">
<!-- Creator: CorelDRAW 2018 (64-Bit Evaluation Version) -->
<svg xmlns="http://www.w3.org/2000/svg" xml:space="preserve" width="0.106189in" height="0.111843in" version="1.1" style="shape-rendering:geometricPrecision; text-rendering:geometricPrecision; image-rendering:optimizeQuality; fill-rule:evenodd; clip-rule:evenodd"
viewBox="0 0 5.84 6.15"
 xmlns:xlink="http://www.w3.org/1999/xlink">
 <defs>
  <style type="text/css">
   <![CDATA[
    .fil0 {fill:white}
   ]]>
  </style>
 </defs>
 <g id="Layer_x0020_1">
  <metadata id="CorelCorpID_0Corel-Layer"/>
  <path class="fil0" d="M4.89 5.16l0.34 0 0 0.34 -0.34 0 0 -0.34zm-1.88 -4.25l2.19 0c0.35,0 0.65,0.29 0.65,0.64l0 3.95c0,0.35 -0.29,0.65 -0.65,0.65l-4.55 0c-0.36,0 -0.65,-0.3 -0.65,-0.65l0 -4.85c0,-0.35 0.29,-0.65 0.65,-0.65l1.32 0c0.19,0 0.38,0.09 0.5,0.24l0.54 0.67zm-2.35 4.93l0 -4.28c0,-0.36 0.29,-0.64 0.65,-0.64l1.3 0 -0.38 -0.47c-0.06,-0.08 -0.16,-0.12 -0.25,-0.12l-1.32 0c-0.18,0 -0.33,0.15 -0.33,0.33l0 4.85c0,0.18 0.15,0.33 0.33,0.33l0.01 0zm0.31 0l4.23 0c0.18,0 0.33,-0.15 0.33,-0.33l0 -3.95c0,-0.18 -0.15,-0.33 -0.33,-0.33l-3.89 0c-0.18,0 -0.33,0.15 -0.33,0.33l0 4.28zm1.43 -2.85c0.13,-0.13 0.32,-0.22 0.53,-0.22 0.21,0 0.39,0.08 0.53,0.22 0.13,0.13 0.22,0.32 0.22,0.53 0,0.21 -0.08,0.39 -0.22,0.53 -0.13,0.13 -0.32,0.22 -0.53,0.22 -0.21,0 -0.39,-0.08 -0.53,-0.22 -0.13,-0.13 -0.22,-0.32 -0.22,-0.53 0,-0.21 0.08,-0.39 0.22,-0.53zm0.17 0.88c0.09,0.09 0.22,0.15 0.36,0.15 0.14,0 0.27,-0.06 0.36,-0.15 0.09,-0.09 0.15,-0.22 0.15,-0.36 0,-0.14 -0.06,-0.27 -0.15,-0.36 -0.09,-0.09 -0.22,-0.15 -0.36,-0.15 -0.14,0 -0.27,0.06 -0.36,0.15 -0.09,0.09 -0.15,0.22 -0.15,0.36 0,0.14 0.06,0.27 0.15,0.36zm1.64 -0.77l0.22 0.04c0.06,0.01 0.1,0.04 0.14,0.08 0.03,0.04 0.05,0.09 0.05,0.15l0 0.29c0,0.06 -0.02,0.11 -0.06,0.15 -0.03,0.04 -0.08,0.07 -0.14,0.08l-0.22 0.04 -0.04 0.1 -0.05 0.1 0.13 0.18c0.03,0.05 0.05,0.1 0.04,0.15 -0,0.05 -0.03,0.11 -0.07,0.15l-0.21 0.21c-0.02,0.02 -0.05,0.04 -0.08,0.05 -0.03,0.01 -0.06,0.02 -0.09,0.02 -0.02,0 -0.05,-0 -0.07,-0.01 -0.02,-0.01 -0.04,-0.02 -0.06,-0.03l-0.18 -0.13 -0.1 0.05 -0.1 0.04 -0.04 0.22c-0.01,0.06 -0.04,0.1 -0.08,0.14 -0.04,0.03 -0.09,0.06 -0.15,0.06l-0.29 0c-0.06,0 -0.11,-0.02 -0.15,-0.06 -0.04,-0.03 -0.07,-0.08 -0.08,-0.14l-0.04 -0.22 -0.1 -0.04 -0.09 -0.04 -0.18 0.13c-0.02,0.01 -0.04,0.02 -0.06,0.03 -0.02,0.01 -0.05,0.01 -0.07,0.01 -0.03,0 -0.06,-0.01 -0.09,-0.02 -0.03,-0.01 -0.05,-0.03 -0.08,-0.05l-0.21 -0.21c-0.04,-0.04 -0.06,-0.09 -0.07,-0.14 -0,-0.05 0.01,-0.11 0.04,-0.15l0.13 -0.18 -0.05 -0.1 -0.04 -0.1 -0.22 -0.04c-0.06,-0.01 -0.1,-0.04 -0.14,-0.08 -0.03,-0.04 -0.05,-0.09 -0.05,-0.15l0 -0.29c0,-0.06 0.02,-0.11 0.05,-0.15 0.03,-0.04 0.08,-0.07 0.14,-0.08l0.21 -0.04 0.04 -0.1 0.05 -0.1 -0.13 -0.18c-0.03,-0.05 -0.05,-0.1 -0.04,-0.15 0,-0.05 0.03,-0.11 0.07,-0.15l0.21 -0.21c0.02,-0.02 0.05,-0.04 0.07,-0.05 0.03,-0.01 0.06,-0.02 0.09,-0.02 0.02,0 0.05,0 0.07,0.01 0.02,0.01 0.04,0.02 0.06,0.03l0.18 0.13 0.1 -0.05 0.1 -0.04 0.04 -0.22c0.01,-0.06 0.04,-0.1 0.08,-0.14 0.04,-0.03 0.09,-0.06 0.15,-0.06l0.29 0c0.06,0 0.11,0.02 0.15,0.05 0.04,0.03 0.07,0.08 0.08,0.14l0.04 0.21 0.1 0.04 0.1 0.05 0.18 -0.13c0.02,-0.01 0.04,-0.03 0.06,-0.03 0.02,-0.01 0.05,-0.01 0.07,-0.01 0.03,0 0.06,0.01 0.09,0.02 0.03,0.01 0.05,0.03 0.08,0.05l0.21 0.21c0.04,0.04 0.06,0.09 0.07,0.15 0,0.05 -0.01,0.11 -0.04,0.15l-0.13 0.18 0.05 0.1 0.04 0.1zm-0.11 0.6l0.29 -0.05 0 -0.28 -0.28 -0.05c-0.02,-0 -0.05,-0.01 -0.06,-0.03 -0.02,-0.01 -0.03,-0.04 -0.03,-0.06 -0.01,-0.05 -0.03,-0.1 -0.05,-0.15 -0.02,-0.05 -0.04,-0.09 -0.07,-0.14 -0.01,-0.02 -0.02,-0.04 -0.02,-0.07 0,-0.02 0.01,-0.05 0.02,-0.06l0.17 -0.24 -0.2 -0.2 -0.23 0.17c-0.02,0.01 -0.04,0.02 -0.07,0.02 -0.02,0 -0.05,-0 -0.07,-0.02 -0.05,-0.03 -0.09,-0.05 -0.14,-0.07 -0.05,-0.02 -0.1,-0.04 -0.15,-0.05 -0.02,-0.01 -0.04,-0.02 -0.06,-0.04 -0.02,-0.02 -0.03,-0.04 -0.03,-0.06l-0.05 -0.28 -0.28 0 -0.05 0.29c-0,0.02 -0.01,0.04 -0.03,0.06 -0.02,0.02 -0.04,0.03 -0.06,0.04 -0.05,0.01 -0.1,0.03 -0.15,0.05 -0.05,0.02 -0.09,0.04 -0.14,0.07 -0.02,0.01 -0.04,0.02 -0.07,0.02 -0.02,-0 -0.05,-0.01 -0.06,-0.02l-0.23 -0.17 -0.2 0.2 0.17 0.24c0.01,0.02 0.02,0.04 0.02,0.06 0,0.02 -0,0.05 -0.02,0.07 -0.03,0.04 -0.05,0.09 -0.07,0.14 -0.02,0.05 -0.04,0.1 -0.05,0.15 -0.01,0.02 -0.02,0.04 -0.04,0.06 -0.02,0.02 -0.04,0.03 -0.06,0.03l-0.28 0.05 0 0.28 0.29 0.05c0.02,0 0.04,0.01 0.06,0.03 0.02,0.02 0.03,0.04 0.04,0.06 0.01,0.05 0.03,0.1 0.05,0.15 0.02,0.05 0.04,0.09 0.07,0.14 0.01,0.02 0.02,0.05 0.02,0.07 -0,0.02 -0.01,0.05 -0.02,0.07l-0.17 0.23 0.2 0.2 0.24 -0.17 0.03 -0.02 0.04 -0.01 0.03 0 0.03 0.01c0.04,0.03 0.09,0.05 0.14,0.07 0.05,0.02 0.09,0.04 0.14,0.05 0.02,0.01 0.04,0.02 0.06,0.03 0.02,0.02 0.03,0.04 0.03,0.06l0.05 0.29 0.28 0 0.05 -0.28c0,-0.02 0.01,-0.05 0.03,-0.06 0.02,-0.02 0.04,-0.03 0.06,-0.03 0.05,-0.01 0.1,-0.03 0.15,-0.05 0.05,-0.02 0.09,-0.04 0.14,-0.07 0.02,-0.01 0.04,-0.02 0.07,-0.02 0.02,0 0.05,0.01 0.06,0.02l0.24 0.17 0.2 -0.2 -0.17 -0.24c-0.01,-0.02 -0.02,-0.04 -0.02,-0.07 -0,-0.02 0,-0.05 0.02,-0.07 0.03,-0.05 0.05,-0.09 0.07,-0.14 0.02,-0.05 0.04,-0.1 0.05,-0.15 0.01,-0.02 0.02,-0.04 0.03,-0.06 0.02,-0.02 0.04,-0.03 0.06,-0.03zm0.8 0.1l0.34 0 0 0.34 -0.34 0 0 -0.34zm0 0.68l0.34 0 0 0.34 -0.34 0 0 -0.34z"/>
 </g>
</svg>
