<?xml version="1.0" encoding="UTF-8"?>
<!DOCTYPE svg PUBLIC "-//W3C//DTD SVG 1.1//EN" "http://www.w3.org/Graphics/SVG/1.1/DTD/svg11.dtd">
<!-- Creator: CorelDRAW 2018 (64-Bit Evaluation Version) -->
<svg xmlns="http://www.w3.org/2000/svg" xml:space="preserve" width="0.0424921in" height="0.0579331in" version="1.1" style="shape-rendering:geometricPrecision; text-rendering:geometricPrecision; image-rendering:optimizeQuality; fill-rule:evenodd; clip-rule:evenodd"
viewBox="0 0 0.55 0.75"
 xmlns:xlink="http://www.w3.org/1999/xlink">
 <defs>
  <style type="text/css">
   <![CDATA[
    .fil2 {fill:#174F48}
    .fil0 {fill:#266960}
    .fil3 {fill:#C90000}
    .fil1 {fill:red}
   ]]>
  </style>
 </defs>
 <g id="Layer_x0020_1">
  <metadata id="CorelCorpID_0Corel-Layer"/>
  <g id="_2586716765248">
   <path class="fil0" d="M0.11 0.5c0.01,0.01 0.02,0.02 0.02,0.03 0,0.01 0,0.13 0,0.14 0,0.04 0.03,0.08 0.08,0.08l0.13 0c0.04,0 0.08,-0.03 0.08,-0.08l0 -0.14c0,-0.01 0.01,-0.03 0.02,-0.03 0.21,-0.15 0.11,-0.49 -0.16,-0.5 -0.27,-0 -0.38,0.34 -0.16,0.5zm0.16 -0.44c0.21,0 0.3,0.27 0.13,0.4 -0.02,0.02 -0.04,0.05 -0.04,0.08l0 0.02c-0.13,0 -0.05,0 -0.18,0l0 -0.02c0,-0.03 -0.01,-0.06 -0.04,-0.08 -0.17,-0.13 -0.08,-0.4 0.13,-0.4z"/>
   <polygon class="fil1" points="0.13,0.25 0.24,0.25 0.24,0.13 0.31,0.13 0.31,0.25 0.42,0.25 0.42,0.32 0.31,0.32 0.31,0.43 0.24,0.43 0.24,0.32 0.13,0.32 "/>
  </g>
  <path class="fil2" d="M0.11 0.5c0.01,0.01 0.02,0.02 0.02,0.03 0,0.01 0,0.13 0,0.14 0,0.04 0.03,0.08 0.08,0.08l0.07 0 0 -0.2 -0.09 0 0 -0.02c0,-0.03 -0.01,-0.06 -0.04,-0.08 -0.17,-0.12 -0.08,-0.4 0.13,-0.4l0 -0.05c-0.27,0 -0.37,0.34 -0.16,0.5z"/>
  <polygon class="fil3" points="0.13,0.25 0.24,0.25 0.24,0.13 0.27,0.13 0.27,0.43 0.24,0.43 0.24,0.32 0.13,0.32 "/>
 </g>
</svg>
