<svg xmlns="http://www.w3.org/2000/svg" width="31.719" height="31.719" viewBox="0 0 31.719 31.719"><path d="M0,15.86A15.859,15.859,0,1,1,15.86,31.719,15.878,15.878,0,0,1,0,15.86Zm1.952,0A13.908,13.908,0,1,0,15.86,1.952,13.924,13.924,0,0,0,1.952,15.86Zm16.133,8.375a.59.59,0,0,1-.588-.545.336.336,0,0,1,0-.045V17.926a1.771,1.771,0,1,0-3.542,0v5.719a.35.35,0,0,1,0,.046.59.59,0,0,1-.588.545h-5.9a.591.591,0,0,1-.59-.59V13.659a.59.59,0,1,1,1.181,0v9.4h4.721V17.926a2.952,2.952,0,1,1,5.9,0v5.128H23.4v-9.4a.59.59,0,1,1,1.18,0v9.985a.59.59,0,0,1-.59.59Zm8.059-11.3L15.725,5.306,5.3,12.935a.59.59,0,0,1-.7-.952L15.376,4.1a.59.59,0,0,1,.7,0l10.768,7.884a.59.59,0,1,1-.7.952Z" fill="#fff"/></svg>