<svg xmlns="http://www.w3.org/2000/svg" width="31.719" height="31.719" viewBox="0 0 31.719 31.719"><path d="M15.859,0A15.859,15.859,0,1,0,31.719,15.859,15.877,15.877,0,0,0,15.859,0Zm0,29.767A13.908,13.908,0,1,1,29.767,15.859,13.923,13.923,0,0,1,15.859,29.767Z" fill="#fff"/><circle cx="1.632" cy="1.632" r="1.632" transform="translate(14.48 7.903)" fill="#fff"/><path d="M594.907,558.555a.976.976,0,0,0-.976.976v8.3a.976.976,0,0,0,1.952,0v-8.3A.976.976,0,0,0,594.907,558.555Z" transform="translate(-579.224 -544.725)" fill="#fff"/></svg>