<?xml version="1.0" encoding="UTF-8"?>
<!DOCTYPE svg PUBLIC "-//W3C//DTD SVG 1.1//EN" "http://www.w3.org/Graphics/SVG/1.1/DTD/svg11.dtd">
<!-- Creator: CorelDRAW 2018 (64-Bit Evaluation Version) -->
<svg xmlns="http://www.w3.org/2000/svg" xml:space="preserve" width="0.0566654in" height="0.0566654in" version="1.1" style="shape-rendering:geometricPrecision; text-rendering:geometricPrecision; image-rendering:optimizeQuality; fill-rule:evenodd; clip-rule:evenodd"
viewBox="0 0 0.89 0.89"
 xmlns:xlink="http://www.w3.org/1999/xlink">
 <defs>
  <style type="text/css">
   <![CDATA[
    .fil1 {fill:#19524A}
    .fil0 {fill:#266960}
    .fil2 {fill:white;fill-rule:nonzero}
   ]]>
  </style>
 </defs>
 <g id="Layer_x0020_1">
  <metadata id="CorelCorpID_0Corel-Layer"/>
  <path class="fil0" d="M0.81 0.3c-0.02,-0.05 0.01,-0.12 -0.04,-0.17 -0.05,-0.05 -0.12,-0.02 -0.16,-0.04 -0.05,-0.02 -0.08,-0.09 -0.15,-0.09 -0.07,-0 -0.1,0.07 -0.14,0.09 -0.05,0.02 -0.12,-0.01 -0.17,0.04 -0.05,0.05 -0.02,0.12 -0.04,0.16 -0.02,0.05 -0.09,0.08 -0.09,0.15 -0,0.07 0.07,0.1 0.09,0.14 0.02,0.05 -0.01,0.12 0.04,0.17 0.05,0.05 0.12,0.02 0.16,0.04 0.05,0.02 0.08,0.09 0.15,0.09 0.07,0 0.1,-0.07 0.14,-0.09 0.05,-0.02 0.12,0.01 0.17,-0.04 0.05,-0.05 0.02,-0.12 0.04,-0.16 0.02,-0.05 0.09,-0.08 0.09,-0.15 0,-0.07 -0.07,-0.1 -0.09,-0.14z"/>
  <path class="fil1" d="M0.81 0.3c-0.02,-0.05 0.01,-0.12 -0.04,-0.17 -0.01,-0.01 -0.02,-0.02 -0.03,-0.02 0.03,0.05 0.01,0.12 0.03,0.16 0.02,0.04 0.09,0.08 0.09,0.14 -0,0.07 -0.07,0.11 -0.09,0.15 -0.02,0.04 0.01,0.12 -0.04,0.16 -0.05,0.05 -0.13,0.02 -0.17,0.04 -0.04,0.02 -0.08,0.09 -0.14,0.09 -0.02,-0 -0.05,-0.01 -0.06,-0.02 0.03,0.03 0.06,0.06 0.11,0.06 0.07,0 0.1,-0.07 0.14,-0.09 0.05,-0.02 0.12,0.01 0.17,-0.04 0.05,-0.05 0.02,-0.12 0.04,-0.16 0.02,-0.05 0.09,-0.08 0.09,-0.15 0,-0.07 -0.07,-0.1 -0.09,-0.14zm-0.26 -0.26c-0.01,-0.01 -0.02,-0.02 -0.03,-0.03 0.01,0.01 0.02,0.02 0.03,0.03zm-0.42 0.7c0,0.01 0.01,0.01 0.01,0.02 0.05,0.05 0.12,0.02 0.16,0.04 0.01,0 0.01,0.01 0.02,0.01 -0.02,-0.02 -0.04,-0.04 -0.06,-0.04 -0.03,-0.01 -0.09,-0 -0.13,-0.02z"/>
  <path class="fil2" d="M0.27 0.5c-0.03,0 -0.05,-0.02 -0.05,-0.05 0,-0.03 0.02,-0.05 0.05,-0.05l0.13 0 0 -0.13c0,-0.03 0.02,-0.05 0.05,-0.05 0.03,0 0.05,0.02 0.05,0.05l0 0.13 0.13 0c0.03,0 0.05,0.02 0.05,0.05 0,0.03 -0.02,0.05 -0.05,0.05l-0.13 0 0 0.13c0,0.03 -0.02,0.05 -0.05,0.05 -0.03,0 -0.05,-0.02 -0.05,-0.05l0 -0.13 -0.13 0z"/>
 </g>
</svg>
