<?xml version="1.0" encoding="UTF-8"?>
<!DOCTYPE svg PUBLIC "-//W3C//DTD SVG 1.1//EN" "http://www.w3.org/Graphics/SVG/1.1/DTD/svg11.dtd">
<!-- Creator: CorelDRAW 2018 (64-Bit Evaluation Version) -->
<svg xmlns="http://www.w3.org/2000/svg" xml:space="preserve" width="0.068878in" height="0.0573504in" version="1.1" style="shape-rendering:geometricPrecision; text-rendering:geometricPrecision; image-rendering:optimizeQuality; fill-rule:evenodd; clip-rule:evenodd"
viewBox="0 0 1.39 1.16"
 xmlns:xlink="http://www.w3.org/1999/xlink">
 <defs>
  <style type="text/css">
   <![CDATA[
    .fil2 {fill:#001E59}
    .fil1 {fill:#003399}
    .fil0 {fill:red}
   ]]>
  </style>
 </defs>
 <g id="Layer_x0020_1">
  <metadata id="CorelCorpID_0Corel-Layer"/>
  <path class="fil0" d="M1.35 0.44l-0.15 0c-0.02,0 -0.04,0.02 -0.04,0.04 0,0.02 0.02,0.04 0.04,0.04l0.15 0c0.02,0 0.04,-0.02 0.04,-0.04 0,-0.02 -0.02,-0.04 -0.04,-0.04z"/>
  <path class="fil0" d="M1.15 0.36c0.01,0.01 0.02,0.02 0.04,0.02 0,0 0.01,-0 0.01,-0l0.14 -0.06c0.02,-0.01 0.03,-0.03 0.02,-0.05 -0.01,-0.02 -0.03,-0.03 -0.05,-0.02l-0.14 0.06c-0.02,0.01 -0.03,0.03 -0.02,0.05z"/>
  <path class="fil0" d="M1.34 0.63l-0.14 -0.06c-0.02,-0.01 -0.04,0 -0.05,0.02 -0.01,0.02 0,0.04 0.02,0.05l0.14 0.06c0,0 0.01,0 0.01,0 0.02,0 0.03,-0.01 0.04,-0.02 0.01,-0.02 -0,-0.04 -0.02,-0.05z"/>
  <path class="fil1" d="M0.43 0.66l0 -0.36 0.09 0c0.11,0 0.13,-0.02 0.39,-0.19l0 0.37 0 0.37c-0.25,-0.16 -0.28,-0.18 -0.37,-0.19 -0.02,0 -0.05,-0 -0.11,-0zm0.56 -0.35l0 -0.27c0,-0.01 -0.01,-0.03 -0.02,-0.03 -0.01,-0.01 -0.03,-0.01 -0.04,0 -0.27,0.19 -0.3,0.21 -0.4,0.21l-0.3 0c-0.12,0 -0.22,0.1 -0.22,0.22l0 0.08c0,0.12 0.1,0.22 0.22,0.22l0.09 0 0.16 0.38c0.02,0.04 0.06,0.05 0.09,0.04 0.04,-0.02 0.05,-0.06 0.04,-0.09l-0.14 -0.32c0.05,0 0.05,0 0.08,0 0.09,0 0.13,0.03 0.39,0.21 0.01,0.01 0.03,0.01 0.04,0 0.01,-0.01 0.02,-0.02 0.02,-0.03l0 -0.27c0.07,-0.02 0.13,-0.08 0.13,-0.16l0 -0c0,-0.08 -0.06,-0.15 -0.13,-0.17z"/>
  <path class="fil2" d="M0.98 0.03c-0,-0.01 -0.01,-0.02 -0.02,-0.02 -0.01,-0.01 -0.03,-0.01 -0.04,0 -0.27,0.19 -0.3,0.21 -0.4,0.21l-0.3 0c-0.12,0 -0.22,0.1 -0.22,0.22l0 0.08c0,0.12 0.1,0.22 0.22,0.22l0.04 0c-0.1,-0.02 -0.17,-0.11 -0.17,-0.21l0 -0.08c0,-0.12 0.1,-0.22 0.22,-0.22l0.3 0c0.1,0 0.13,-0.02 0.38,-0.2zm-0.68 0.71l0.16 0.37c0.02,0.04 0.06,0.05 0.09,0.04 0,-0 0.01,-0 0.01,-0.01 -0.01,-0.01 -0.01,-0.02 -0.02,-0.03l-0.16 -0.38 -0.08 0z"/>
 </g>
</svg>
