<?xml version="1.0" encoding="UTF-8"?>
<!DOCTYPE svg PUBLIC "-//W3C//DTD SVG 1.1//EN" "http://www.w3.org/Graphics/SVG/1.1/DTD/svg11.dtd">
<!-- Creator: CorelDRAW 2018 (64-Bit Evaluation Version) -->
<svg xmlns="http://www.w3.org/2000/svg" xml:space="preserve" width="0.0560236in" height="0.0564843in" version="1.1" style="shape-rendering:geometricPrecision; text-rendering:geometricPrecision; image-rendering:optimizeQuality; fill-rule:evenodd; clip-rule:evenodd"
viewBox="0 0 1.56 1.57"
 xmlns:xlink="http://www.w3.org/1999/xlink">
 <defs>
  <style type="text/css">
   <![CDATA[
    .fil0 {fill:#A60000}
    .fil1 {fill:red}
   ]]>
  </style>
 </defs>
 <g id="Layer_x0020_1">
  <metadata id="CorelCorpID_0Corel-Layer"/>
  <polygon class="fil0" points="0.78,0.49 1.05,0.37 0.78,0.01 0.51,0.37 "/>
  <polygon class="fil1" points="1.31,0.77 1.1,0.48 0.78,0.63 0.45,0.48 0.24,0.77 0.78,1.04 "/>
  <polygon class="fil1" points="1.37,0.88 0.78,1.18 0.18,0.88 -0,1.13 0.78,1.57 1.55,1.13 "/>
  <path class="fil1" d="M1.21 0.37c0.02,0.02 0.04,0.02 0.06,0 0.02,-0.02 0.02,-0.04 0,-0.06l-0.08 -0.08 0.05 0c0.12,0 0.23,0.1 0.23,0.23l0 0.09c0,0.02 0.02,0.04 0.04,0.04 0.02,0 0.04,-0.02 0.04,-0.04l0 -0.09c0,-0.17 -0.14,-0.31 -0.31,-0.31l-0.05 0 0.08 -0.08c0.02,-0.02 0.02,-0.04 0,-0.06 -0.01,-0.01 -0.02,-0.01 -0.03,-0.01 -0.01,0 -0.02,0 -0.03,0.01l-0.15 0.15c-0.02,0.02 -0.02,0.04 0,0.06l0.15 0.15z"/>
  <circle class="fil1" cx="1.51" cy="0.71" r="0.05"/>
  <circle class="fil1" cx="1.51" cy="0.88" r="0.05"/>
 </g>
</svg>
