<?xml version="1.0" encoding="UTF-8"?>
<!DOCTYPE svg PUBLIC "-//W3C//DTD SVG 1.1//EN" "http://www.w3.org/Graphics/SVG/1.1/DTD/svg11.dtd">
<!-- Creator: CorelDRAW 2018 (64-Bit Evaluation Version) -->
<svg xmlns="http://www.w3.org/2000/svg" xml:space="preserve" width="0.0560236in" height="0.0564843in" version="1.1" style="shape-rendering:geometricPrecision; text-rendering:geometricPrecision; image-rendering:optimizeQuality; fill-rule:evenodd; clip-rule:evenodd"
viewBox="0 0 1.35 1.36"
 xmlns:xlink="http://www.w3.org/1999/xlink">
 <defs>
  <style type="text/css">
   <![CDATA[
    .fil0 {fill:#15613B}
    .fil1 {fill:#339966}
   ]]>
  </style>
 </defs>
 <g id="Layer_x0020_1">
  <metadata id="CorelCorpID_0Corel-Layer"/>
  <polygon class="fil0" points="0.67,0.42 0.9,0.32 0.67,0.01 0.44,0.32 "/>
  <polygon class="fil1" points="1.13,0.66 0.95,0.41 0.67,0.54 0.39,0.41 0.21,0.66 0.67,0.89 "/>
  <polygon class="fil1" points="1.18,0.76 0.67,1.02 0.16,0.76 -0,0.97 0.67,1.36 1.34,0.97 "/>
  <path class="fil1" d="M1.05 0.32c0.01,0.01 0.04,0.01 0.05,0 0.01,-0.01 0.01,-0.04 0,-0.05l-0.07 -0.07 0.04 0c0.11,0 0.19,0.09 0.19,0.19l0 0.08c0,0.02 0.02,0.04 0.04,0.04 0.02,0 0.04,-0.02 0.04,-0.04l0 -0.08c0,-0.15 -0.12,-0.27 -0.27,-0.27l-0.04 0 0.07 -0.07c0.01,-0.01 0.01,-0.04 0,-0.05 -0.01,-0.01 -0.02,-0.01 -0.03,-0.01 -0.01,0 -0.02,0 -0.03,0.01l-0.13 0.13c-0.01,0.01 -0.01,0.04 0,0.05l0.13 0.13z"/>
  <circle class="fil1" cx="1.3" cy="0.61" r="0.04"/>
  <circle class="fil1" cx="1.3" cy="0.76" r="0.04"/>
 </g>
</svg>
