<?xml version="1.0" encoding="UTF-8"?>
<!DOCTYPE svg PUBLIC "-//W3C//DTD SVG 1.1//EN" "http://www.w3.org/Graphics/SVG/1.1/DTD/svg11.dtd">
<!-- Creator: CorelDRAW 2018 (64-Bit Evaluation Version) -->
<svg xmlns="http://www.w3.org/2000/svg" xml:space="preserve" width="0.110791in" height="0.107051in" version="1.1" style="shape-rendering:geometricPrecision; text-rendering:geometricPrecision; image-rendering:optimizeQuality; fill-rule:evenodd; clip-rule:evenodd"
viewBox="0 0 4.77 4.61"
 xmlns:xlink="http://www.w3.org/1999/xlink">
 <defs>
  <style type="text/css">
   <![CDATA[
    .fil0 {fill:white;fill-rule:nonzero}
   ]]>
  </style>
 </defs>
 <g id="Layer_x0020_1">
  <metadata id="CorelCorpID_0Corel-Layer"/>
  <path class="fil0" d="M0.15 2.57l0.91 0 0 2.04 -1.06 0 0 -2.04 0.15 0zm2.5 -0.2l0.91 0 0 2.23 -0.37 0c-0.11,-0.08 -0.19,-0.17 -0.27,-0.26l0.37 0c0,-0.57 0,-1.1 0,-1.71l-0.53 0 0 0.63 -0.27 -0.26 0 -0.63 0.15 0zm0.12 1.44l0 0.3c-0.09,-0.17 -0.13,-0.3 -0.13,-0.3l0.13 -0zm1.09 -1.93l0.91 0 0 2.72 -1.06 0 0 -2.72 0.15 0zm0.65 0.26l-0.53 0 0 2.2 0.53 0 0 -2.2zm-3.12 -0.36l0.91 0 0 1.03 -0.19 -0.19 -0.07 0.07 0 -0.65 -0.53 0 0 1.13 -0.27 0.24 0 -1.64 0.15 0zm0.91 2.82l-1.06 0 0 -0.8 0.27 0.01 0 0.54 0.43 0c0.19,0.21 0.37,0.26 0.37,0.26zm-0.69 -1.18c-0.05,0.06 -0.11,0.09 -0.15,0.15l0.35 0.01c0.08,0.31 0.15,0.48 0.34,0.66 0.16,0.15 0.39,0.29 0.67,0.33l-0.05 -0.06c-0.02,-0.02 -0.03,-0.02 -0.05,-0.04 -0.26,-0.25 -0.33,-0.51 -0.35,-0.89l0.37 -0.01 -0.64 -0.61 -0.49 0.47zm-1.08 -1.92c0.08,0 0.15,0.02 0.22,0.06l0.68 -0.82c-0.07,-0.08 -0.1,-0.18 -0.1,-0.29 0,-0.25 0.2,-0.45 0.45,-0.45 0.25,0 0.45,0.2 0.45,0.45 0,0.09 -0.03,0.18 -0.08,0.25l0.66 0.67c0.07,-0.05 0.16,-0.08 0.25,-0.08 0.09,0 0.18,0.03 0.25,0.08l0.55 -0.55c-0.05,-0.07 -0.08,-0.16 -0.08,-0.25 0,-0.25 0.2,-0.45 0.45,-0.45 0.25,0 0.45,0.2 0.45,0.45 0,0.25 -0.2,0.45 -0.45,0.45 -0.09,0 -0.18,-0.03 -0.25,-0.08l-0.55 0.55c0.05,0.07 0.08,0.16 0.08,0.25 0,0.25 -0.2,0.45 -0.45,0.45 -0.25,0 -0.45,-0.2 -0.45,-0.45 0,-0.09 0.03,-0.18 0.08,-0.25l-0.66 -0.67c-0.07,0.05 -0.16,0.08 -0.25,0.08 -0.08,0 -0.15,-0.02 -0.22,-0.06l-0.68 0.82c0.07,0.08 0.1,0.18 0.1,0.29 0,0.25 -0.2,0.45 -0.45,0.45 -0.25,0 -0.45,-0.2 -0.45,-0.45 0,-0.25 0.2,-0.45 0.45,-0.45zm0.26 1.33l-0.53 0 0 1.52 0.53 0 0 -1.52z"/>
 </g>
</svg>
