<?xml version="1.0" encoding="UTF-8"?>
<!DOCTYPE svg PUBLIC "-//W3C//DTD SVG 1.1//EN" "http://www.w3.org/Graphics/SVG/1.1/DTD/svg11.dtd">
<!-- Creator: CorelDRAW 2018 (64-Bit Evaluation Version) -->
<svg xmlns="http://www.w3.org/2000/svg" xml:space="preserve" width="0.1145in" height="0.113118in" version="1.1" style="shape-rendering:geometricPrecision; text-rendering:geometricPrecision; image-rendering:optimizeQuality; fill-rule:evenodd; clip-rule:evenodd"
viewBox="0 0 10.07 9.95"
 xmlns:xlink="http://www.w3.org/1999/xlink">
 <defs>
  <style type="text/css">
   <![CDATA[
    .fil0 {fill:white}
   ]]>
  </style>
 </defs>
 <g id="Layer_x0020_1">
  <metadata id="CorelCorpID_0Corel-Layer"/>
  <path class="fil0" d="M0.15 6.94c0.1,0.64 0.09,0.73 0.64,1.1 0.35,0.24 0.72,0.44 1.09,0.64 0.16,0.09 1.86,0.98 2.03,0.99 0.12,0.01 0.22,-0.06 0.26,-0.17 0.08,-0.27 -0.22,-0.35 -0.41,-0.43 -0.19,-0.09 -0.39,-0.19 -0.58,-0.28 -0.59,-0.29 -1.71,-0.87 -2.22,-1.24 -0.25,-0.18 -0.27,-0.26 -0.3,-0.57 -0.02,-0.28 -0.01,-0.56 0.02,-0.84 0.41,0.18 0.8,0.39 1.2,0.59l1.51 0.76c0.1,0.05 0.19,0.11 0.29,0.16 0.2,0.09 0.46,0.13 0.53,0.36 0.08,0.24 -0,0.51 0.09,0.79 0.07,0.19 0.2,0.41 0.33,0.56 0.3,0.33 0.78,0.58 1.23,0.59 0.98,0.02 1.55,-0.95 1.87,-1.74 0.18,-0.43 0.34,-0.87 0.5,-1.3 0.49,-1.33 0.96,-2.68 1.42,-4.02 0.08,-0.22 0.15,-0.46 0.23,-0.68 0.1,-0.26 0.19,-0.38 0.17,-0.68 -0,-0.07 0.01,-0.11 -0.05,-0.16 -0.05,-0.05 -0.09,-0.06 -0.15,-0.07l-4.04 -0.95c-0.39,-0.09 -1.11,-0.25 -1.46,-0.35l-0.08 0c-0.15,0.06 -0.18,0.1 -0.23,0.25 -0.04,0.12 -0.09,0.24 -0.13,0.35l-0.19 0.52c-0.38,-0.24 -0.82,-0.38 -1.3,-0.38 -0.67,0 -1.29,0.27 -1.73,0.72 -0.44,0.44 -0.72,1.05 -0.72,1.73 0,0.67 0.27,1.29 0.72,1.73 0.44,0.44 1.05,0.72 1.73,0.72 0.67,0 1.29,-0.27 1.73,-0.72 0.44,-0.44 0.72,-1.05 0.72,-1.73 0,-0.67 -0.27,-1.29 -0.72,-1.73l-0.01 -0.01c0.12,-0.3 0.23,-0.6 0.34,-0.9 0.21,0.03 0.43,0.09 0.64,0.14l1.88 0.44c0.42,0.1 0.85,0.2 1.27,0.3 0.41,0.1 0.84,0.19 1.25,0.3 -0.45,1.37 -0.93,2.74 -1.42,4.1 -0.24,0.67 -0.49,1.34 -0.75,2 -0.21,0.53 -0.59,1.4 -1.2,1.57 -0.37,0.1 -0.74,-0.04 -1.03,-0.29 -0.31,-0.27 -0.41,-0.6 -0.37,-1 0.06,-0.61 -0.04,-0.54 -0.54,-0.78 -0.3,-0.15 -0.61,-0.31 -0.91,-0.46 -0.61,-0.31 -1.22,-0.61 -1.83,-0.92 -0.15,-0.08 -0.32,-0.15 -0.46,-0.23 -0.16,-0.09 -0.27,-0.19 -0.47,-0.2 -0.08,-0 -0.2,-0.01 -0.25,0.05 -0.13,0.14 -0.09,0.76 -0.14,0.89l0 0.47zm7 -0.76c0.13,0.03 0.2,0.17 0.17,0.3 -0.03,0.13 -0.17,0.2 -0.3,0.17l-2.47 -0.67 1.22 -3.25 0.21 0.63 0.32 1c0.04,0.13 -0.03,0.26 -0.16,0.3 -0.13,0.04 -0.26,-0.03 -0.3,-0.16l-0.11 -0.34 -0.55 1.48 1.96 0.53zm-1.2 -3.72c-0.13,-0.03 -0.21,-0.16 -0.17,-0.29 0.03,-0.13 0.16,-0.21 0.29,-0.17l2.62 0.67 -1.25 3.27 -0.21 -0.67 -0.28 -0.99c-0.04,-0.13 0.04,-0.26 0.17,-0.3 0.13,-0.04 0.26,0.04 0.3,0.17l0.08 0.29 0.55 -1.44 -2.09 -0.54zm-4.67 1.02c-0.16,0 -0.29,-0.13 -0.29,-0.29 0,-0.16 0.13,-0.29 0.29,-0.29l0.88 0 0 -0.88c0,-0.16 0.13,-0.29 0.29,-0.29 0.16,0 0.29,0.13 0.29,0.29l0 0.88 0.88 0c0.16,0 0.29,0.13 0.29,0.29 0,0.16 -0.13,0.29 -0.29,0.29l-0.88 0 0 0.88c0,0.16 -0.13,0.29 -0.29,0.29 -0.16,0 -0.29,-0.13 -0.29,-0.29l0 -0.88 -0.88 0zm2.53 -1.65c-0.35,-0.35 -0.83,-0.56 -1.36,-0.56 -0.53,0 -1.01,0.22 -1.36,0.56 -0.35,0.35 -0.56,0.83 -0.56,1.36 0,0.53 0.22,1.01 0.56,1.36 0.35,0.35 0.83,0.56 1.36,0.56 0.53,0 1.01,-0.22 1.36,-0.56 0.35,-0.35 0.56,-0.83 0.56,-1.36 0,-0.53 -0.22,-1.01 -0.56,-1.36z"/>
 </g>
</svg>
