<?xml version="1.0" encoding="UTF-8"?>
<!DOCTYPE svg PUBLIC "-//W3C//DTD SVG 1.1//EN" "http://www.w3.org/Graphics/SVG/1.1/DTD/svg11.dtd">
<!-- Creator: CorelDRAW 2018 (64-Bit Evaluation Version) -->
<svg xmlns="http://www.w3.org/2000/svg" xml:space="preserve" width="0.103268in" height="0.112421in" version="1.1" style="shape-rendering:geometricPrecision; text-rendering:geometricPrecision; image-rendering:optimizeQuality; fill-rule:evenodd; clip-rule:evenodd"
viewBox="0 0 6.64 7.22"
 xmlns:xlink="http://www.w3.org/1999/xlink">
 <defs>
  <style type="text/css">
   <![CDATA[
    .fil0 {fill:white}
   ]]>
  </style>
 </defs>
 <g id="Layer_x0020_1">
  <metadata id="CorelCorpID_0Corel-Layer"/>
  <path class="fil0" d="M0.39 5.36c-0.08,0.09 -0.17,0.14 -0.24,0.23l0.56 0.02c0.13,0.49 0.24,0.76 0.53,1.04 0.25,0.24 0.61,0.46 1.07,0.53l-0.08 -0.09c-0.03,-0.03 -0.05,-0.04 -0.08,-0.07 -0.41,-0.39 -0.53,-0.81 -0.55,-1.42l0.59 -0.01 -1.02 -0.97 -0.78 0.74zm1.67 -4.29c0.32,0 0.61,0.13 0.81,0.34 0.13,0.13 0.24,0.3 0.29,0.49 -0.13,0.08 -0.25,0.17 -0.36,0.28l-0.04 0.05c-0,-0.19 -0.08,-0.37 -0.21,-0.5 -0.13,-0.13 -0.3,-0.21 -0.5,-0.21 -0.19,0 -0.37,0.08 -0.5,0.21 -0.13,0.13 -0.21,0.3 -0.21,0.5 0,0.19 0.08,0.37 0.21,0.5 0.13,0.13 0.3,0.21 0.5,0.21 0.12,0 0.23,-0.03 0.32,-0.08 -0.06,0.16 -0.09,0.33 -0.1,0.5 -0.07,0.01 -0.15,0.02 -0.22,0.02 -0.32,0 -0.61,-0.13 -0.81,-0.34 -0.21,-0.21 -0.34,-0.5 -0.34,-0.81 0,-0.32 0.13,-0.61 0.34,-0.81 0.21,-0.21 0.5,-0.34 0.81,-0.34zm2.41 0.37c-0.13,0 -0.24,-0.11 -0.24,-0.24 0,-0.13 0.11,-0.24 0.24,-0.24l0.73 0 0 -0.73c0,-0.13 0.11,-0.24 0.24,-0.24 0.13,0 0.24,0.11 0.24,0.24l0 0.73 0.73 0c0.13,0 0.24,0.11 0.24,0.24 0,0.13 -0.11,0.24 -0.24,0.24l-0.73 0 0 0.73c0,0.13 -0.11,0.24 -0.24,0.24 -0.13,0 -0.24,-0.11 -0.24,-0.24l0 -0.73 -0.73 0zm-2.17 3.71c0.25,-0.24 0.32,-0.28 0.41,-0.34 0.28,-0.18 0.49,0.08 0.74,0.2 0.22,0.1 0.54,0.18 0.95,0.11 0.24,-0.05 0.5,-0.14 0.79,-0.32l0.1 -0.06 0.11 0.05c1.39,0.67 1.24,2.23 1.24,2.24l-0.01 0.21 -3.5 0 -0.07 -0.01c-0,-0 -0.9,-0.25 -1.03,-1.23l0.45 0c0.11,0.55 0.6,0.75 0.69,0.79l3.03 0c-0.02,-0.37 -0.15,-1.13 -0.89,-1.55 -0.3,0.17 -0.58,0.27 -0.83,0.32 -0.51,0.1 -0.93,-0.01 -1.22,-0.14 -0.14,-0.06 -0.26,-0.14 -0.34,-0.21 -0.08,0.06 -0.15,0.11 -0.31,0.27l-0.31 -0.32zm1.8 -3.06c0.38,0 0.72,0.15 0.97,0.4 0.25,0.25 0.4,0.59 0.4,0.97 0,0.38 -0.15,0.72 -0.4,0.97 -0.25,0.25 -0.59,0.4 -0.97,0.4 -0.38,0 -0.72,-0.15 -0.97,-0.4 -0.25,-0.25 -0.4,-0.59 -0.4,-0.97 0,-0.38 0.15,-0.72 0.4,-0.97 0.25,-0.25 0.59,-0.4 0.97,-0.4zm0.65 0.72c-0.17,-0.17 -0.4,-0.27 -0.65,-0.27 -0.26,0 -0.49,0.1 -0.65,0.27 -0.17,0.17 -0.27,0.4 -0.27,0.66 0,0.26 0.1,0.49 0.27,0.65 0.17,0.17 0.4,0.27 0.66,0.27 0.26,0 0.49,-0.1 0.65,-0.27 0.17,-0.17 0.27,-0.4 0.27,-0.65 0,-0.26 -0.1,-0.49 -0.27,-0.65zm-4.75 1.99c0.09,0.02 0.35,0.03 0.46,0.02 0.02,-0.02 0.53,-0.52 0.8,-0.73l0.57 0.56c0.04,-0.02 0.45,-0.36 0.59,-0.49 -0.07,-0.16 -0.11,-0.33 -0.13,-0.5 -0.55,0.07 -0.99,-0.11 -1.25,-0.42 -0.48,0.17 -1.04,1.04 -1.04,1.55z"/>
 </g>
</svg>
