<?xml version="1.0" encoding="UTF-8"?>
<!DOCTYPE svg PUBLIC "-//W3C//DTD SVG 1.1//EN" "http://www.w3.org/Graphics/SVG/1.1/DTD/svg11.dtd">
<!-- Creator: CorelDRAW 2018 (64-Bit Evaluation Version) -->
<svg xmlns="http://www.w3.org/2000/svg" xml:space="preserve" width="0.11374in" height="0.113118in" version="1.1" style="shape-rendering:geometricPrecision; text-rendering:geometricPrecision; image-rendering:optimizeQuality; fill-rule:evenodd; clip-rule:evenodd"
viewBox="0 0 13.62 13.55"
 xmlns:xlink="http://www.w3.org/1999/xlink">
 <defs>
  <style type="text/css">
   <![CDATA[
    .fil0 {fill:white}
   ]]>
  </style>
 </defs>
 <g id="Layer_x0020_1">
  <metadata id="CorelCorpID_0Corel-Layer"/>
  <path class="fil0" d="M0.12 9.45c0.13,0.87 0.13,0.99 0.87,1.5 0.47,0.32 0.98,0.6 1.48,0.87 0.22,0.12 2.54,1.33 2.76,1.35 0.16,0.01 0.3,-0.08 0.35,-0.24 0.11,-0.36 -0.3,-0.47 -0.55,-0.59 -0.27,-0.13 -0.53,-0.26 -0.79,-0.38 -0.8,-0.39 -2.33,-1.18 -3.02,-1.68 -0.34,-0.25 -0.37,-0.36 -0.4,-0.77 -0.03,-0.37 -0.01,-0.77 0.03,-1.14 0.55,0.24 1.09,0.53 1.63,0.8l2.06 1.03c0.14,0.07 0.26,0.15 0.4,0.22 0.27,0.13 0.62,0.17 0.73,0.49 0.1,0.32 -0.01,0.7 0.13,1.07 0.09,0.26 0.27,0.56 0.46,0.77 0.4,0.45 1.06,0.79 1.67,0.8 1.33,0.03 2.11,-1.3 2.55,-2.37 0.24,-0.58 0.47,-1.18 0.69,-1.77 0.67,-1.81 1.3,-3.65 1.93,-5.47 0.1,-0.3 0.2,-0.63 0.31,-0.92 0.13,-0.36 0.25,-0.52 0.24,-0.92 -0,-0.1 0.01,-0.14 -0.06,-0.22 -0.06,-0.06 -0.12,-0.08 -0.2,-0.1l-5.49 -1.29c-0.53,-0.12 -1.51,-0.33 -1.98,-0.47l-0.11 0c-0.21,0.08 -0.24,0.14 -0.31,0.35 -0.06,0.16 -0.12,0.32 -0.18,0.48l-0.67 1.79 0.47 0.68 0.24 -0.63c0.24,-0.63 0.5,-1.28 0.72,-1.92 0.28,0.04 0.59,0.13 0.87,0.2l2.56 0.61c0.57,0.13 1.15,0.27 1.72,0.41 0.56,0.13 1.15,0.25 1.7,0.41 -0.62,1.87 -1.27,3.74 -1.93,5.59 -0.33,0.91 -0.66,1.83 -1.03,2.73 -0.29,0.72 -0.81,1.91 -1.63,2.14 -0.51,0.14 -1.01,-0.06 -1.4,-0.39 -0.42,-0.36 -0.56,-0.81 -0.51,-1.36 0.09,-0.84 -0.06,-0.73 -0.73,-1.06 -0.41,-0.2 -0.83,-0.42 -1.24,-0.63 -0.83,-0.42 -1.67,-0.83 -2.5,-1.26 -0.2,-0.1 -0.44,-0.2 -0.63,-0.31 -0.22,-0.13 -0.37,-0.26 -0.64,-0.28 -0.1,-0.01 -0.27,-0.02 -0.34,0.06 -0.17,0.2 -0.13,1.04 -0.2,1.21l0 0.65zm0.45 -9.21c0.3,-0.21 0.66,-0.28 1,-0.22 0.34,0.06 0.65,0.24 0.86,0.54l4.62 6.54 0.27 2.67 -2.45 -1.13 -4.62 -6.54c-0.21,-0.3 -0.28,-0.66 -0.22,-1 0.06,-0.34 0.24,-0.65 0.54,-0.86zm0.67 2.03l1.02 -0.72 -0.41 -0.58c-0.1,-0.14 -0.25,-0.23 -0.41,-0.26 -0.16,-0.03 -0.33,0.01 -0.47,0.11 -0.14,0.1 -0.23,0.25 -0.26,0.41 -0.03,0.16 0.01,0.33 0.11,0.47l0.41 0.58zm1.43 -0.15l-1.02 0.72 3.4 4.8 1.02 -0.73 -3.4 -4.8zm3.72 5.44l-0.85 0.6 0.96 0.44 -0.11 -1.04zm1.43 -4.98c-0.19,0.04 -0.28,0.23 -0.24,0.42 0.04,0.2 0.22,0.24 0.4,0.29 0.68,0.18 1.44,0.41 2.13,0.61 0.22,0.06 0.9,0.3 1.09,0.26 0.19,-0.04 0.28,-0.22 0.25,-0.41 -0.04,-0.2 -0.22,-0.24 -0.39,-0.29 -0.65,-0.17 -1.47,-0.42 -2.13,-0.61 -0.2,-0.06 -0.93,-0.3 -1.09,-0.27zm0.04 5.31l0.65 0.19c0.23,0.07 0.9,0.3 1.09,0.26 0.19,-0.05 0.28,-0.24 0.23,-0.42 -0.05,-0.19 -0.23,-0.23 -0.4,-0.28 -0.53,-0.14 -1.1,-0.31 -1.64,-0.47l0.07 0.73zm-0.81 -3.23c-0.2,0.03 -0.3,0.21 -0.27,0.4 0.03,0.22 0.21,0.26 0.39,0.31 0.65,0.17 1.47,0.42 2.13,0.61 0.21,0.06 0.91,0.3 1.08,0.27 0.19,-0.04 0.3,-0.21 0.27,-0.4 -0.04,-0.21 -0.22,-0.26 -0.4,-0.31 -0.69,-0.18 -1.43,-0.42 -2.13,-0.61 -0.19,-0.05 -0.92,-0.3 -1.07,-0.27z"/>
 </g>
</svg>
